<?xml version="1.0" encoding="UTF-8"?><svg xmlns="http://www.w3.org/2000/svg" xmlns:xlink="http://www.w3.org/1999/xlink" height="315.2" preserveAspectRatio="xMidYMid" version="1.1" viewBox="-14.6 0.0 270.6 315.2" width="270.6" zoomAndPan="magnify">
 <g>
  <path d="m213.8 167.03c0.45 47.58 41.74 63.41 42.2 63.61-0.35 1.12-6.6 22.57-21.76 44.72-13.1 19.15-26.7 38.24-48.13 38.63-21.05 0.39-27.82-12.48-51.89-12.48-24.06 0-31.58 12.09-51.505 12.87-20.68 0.78-36.428-20.71-49.641-39.79-26.999-39.04-47.632-110.3-19.927-158.41 13.763-23.889 38.359-39.017 65.056-39.405 20.307-0.387 39.477 13.662 51.887 13.662s35.7-16.895 60.19-14.414c10.25 0.427 39.02 4.141 57.5 31.187-1.49 0.92-34.33 20.04-33.98 59.82m-39.56-116.83c10.98-13.29 18.37-31.791 16.35-50.199-15.82 0.63605-34.96 10.546-46.31 23.828-10.17 11.763-19.08 30.589-16.68 48.633 17.64 1.365 35.66-8.964 46.64-22.262"/>
 </g>
</svg>