<?xml version="1.0" encoding="UTF-8" standalone="no"?><svg xmlns="http://www.w3.org/2000/svg" xmlns:xlink="http://www.w3.org/1999/xlink" fill="#000000" height="48.6" preserveAspectRatio="xMidYMid meet" version="1" viewBox="10.4 7.7 43.8 48.6" width="43.8" zoomAndPan="magnify"><g id="change1_1"><path d="m11.3 8.72a3.77 3.77 0 0 0 -.86 2.63v41.3a3.77 3.77 0 0 0 .86 2.63l.14.13 23.14-23.14v-.54l-23.14-23.14z" fill="#134866"/></g><g id="change2_1"><path d="m42.29 40-7.71-7.72v-.54l7.71-7.74.18.1 9.14 5.19c2.61 1.49 2.61 3.91 0 5.4l-9.14 5.19z" fill="#ffffff"/></g><g id="change3_1"><path d="m42.47 39.89-7.89-7.89-23.28 23.28c.86.91 2.28 1 3.88.11z" fill="#0b8b9f"/></g><g id="change4_1"><path d="m42.47 24.11-27.29-15.5c-1.6-.91-3-.8-3.88.11l23.28 23.28z" fill="#dee2e2"/></g></svg>