<?xml version="1.0" encoding="UTF-8" standalone="no"?><svg xmlns="http://www.w3.org/2000/svg" xmlns:xlink="http://www.w3.org/1999/xlink" fill="#000000" height="462.9" preserveAspectRatio="xMidYMid meet" version="1" viewBox="0.0 0.0 462.0 462.9" width="462" zoomAndPan="magnify"><g id="change1_1"><path d="M462.0298,233.3458c0,126.5798-102.9754,229.5552-229.5478,229.5552v-121.5 c59.5783,0,108.0478-48.4769,108.0478-108.0552H462.0298z M0,229.5552h121.5c0-59.5783,48.4695-108.0552,108.0478-108.0552V0 C102.9754,0,0,102.9754,0,229.5552z" fill="#235a86"/></g><g id="change2_1"><path d="M462.0297,0v121.5c-59.5782,0-108.0478,48.4769-108.0478,108.0552h-121.5 C232.4819,102.9754,335.4573,0,462.0297,0z M0.0001,341.401v121.5c126.5724,0,229.5479-102.9754,229.5479-229.5552h-121.5 C108.0479,292.9241,59.5784,341.401,0.0001,341.401z" fill="#57e4ff"/></g></svg>