<?xml version="1.0" encoding="UTF-8" standalone="no"?><svg xmlns="http://www.w3.org/2000/svg" xmlns:xlink="http://www.w3.org/1999/xlink" fill="#000000" height="500" preserveAspectRatio="xMidYMid meet" version="1" viewBox="0.0 0.0 248.6 500.0" width="248.6" zoomAndPan="magnify"><g id="change1_1"><path d="M 66.5 474.898438 L 51 463 L 188.5 291.898438 L 213.601562 291.800781 Z M 141.101562 291.898438 L 165.398438 291.800781 L 36.800781 451.800781 L 25.300781 443 Z M 112.398438 237.898438 L 174.5 237.800781 L 210.699219 273.800781 L 136.601562 274 L 84.699219 274 Z M 49.898438 253.898438 L 206 48.699219 L 223.601562 63.101562 L 65.5 269.398438 Z M 178.101562 25.800781 L 192 37.199219 L 37 241 L 24.101562 228.199219 Z M 126.300781 219.800781 L 248.601562 60.199219 L 175.101562 0 L 0.199219 229.898438 L 62.699219 292.101562 L 118.300781 292 L 0 446.300781 L 69.398438 500 L 244.601562 282 L 182 219.601562 L 126.300781 219.800781" fill="#d2beb3"/></g></svg>